<?xml version="1.0" encoding="utf-8"?>
<!-- Generator: Adobe Illustrator 17.1.0, SVG Export Plug-In . SVG Version: 6.00 Build 0)  -->
<!DOCTYPE svg PUBLIC "-//W3C//DTD SVG 1.1//EN" "http://www.w3.org/Graphics/SVG/1.1/DTD/svg11.dtd">
<svg version="1.1" id="Layer_1" xmlns="http://www.w3.org/2000/svg" xmlns:xlink="http://www.w3.org/1999/xlink" x="0px" y="0px"
	 viewBox="0 0 427 183.75" enable-background="new 0 0 427 183.75" xml:space="preserve">
<path d="M36.866,13.734c7.932,0,13.72,1.844,17.36,5.53c3.64,3.688,5.46,9.358,5.46,17.01v3.5c0,10.08-3.314,16.66-9.94,19.74
	c7.652,2.988,11.48,9.988,11.48,21v7.98c0,7.56-1.984,13.324-5.95,17.29c-3.968,3.968-9.778,5.95-17.43,5.95h-24.22v-98H36.866z
	 M36.446,27.734h-7.42v25.9h6.02c3.08,0,5.39-0.792,6.93-2.38c1.54-1.586,2.31-4.246,2.31-7.98v-5.46
	C44.285,31.094,41.672,27.734,36.446,27.734z M35.886,67.634h-6.86v30.1h8.82c2.706,0,4.712-0.722,6.02-2.17
	c1.306-1.446,1.96-3.942,1.96-7.49v-8.54c0-4.48-0.77-7.582-2.31-9.31C41.976,68.499,39.431,67.634,35.886,67.634z"/>
<path d="M66.965,111.734v-98h15.4v98H66.965z"/>
<path d="M122.963,111.734l-19.18-70.98v70.98h-13.86v-98h19.32l15.82,58.66v-58.66h13.72v98H122.963z"/>
<g>
	<path d="M322.052,112.259v-1.4c1.492,0.094,3.452,0.048,5.88-0.14c5.88-0.56,10.15-2.59,12.811-6.09s3.989-8.936,3.989-16.31
		v-74.06h1.4v74.06c0,7.748-1.494,13.534-4.479,17.36c-2.988,3.828-7.561,5.974-13.721,6.44
		C325.504,112.305,323.544,112.351,322.052,112.259z"/>
	<path d="M374.132,13.559c6.906,0,11.945,2.264,15.12,6.79c3.172,4.528,4.76,10.384,4.76,17.57v1.68h-1.4v-1.68
		c0-6.812-1.47-12.342-4.409-16.59c-2.94-4.246-7.631-6.37-14.07-6.37c-6.534,0-11.248,2.1-14.141,6.3
		c-2.894,4.2-4.34,9.708-4.34,16.52c0,4.76,1.33,8.938,3.99,12.53c2.66,3.594,5.88,6.604,9.66,9.03
		c3.78,2.428,7.536,4.854,11.27,7.28c3.732,2.428,6.931,5.484,9.591,9.17c2.659,3.688,3.989,7.958,3.989,12.81
		c0,7.28-1.609,13.16-4.83,17.64c-3.22,4.48-8.33,6.72-15.33,6.72s-12.109-2.24-15.329-6.72c-3.221-4.48-4.83-10.36-4.83-17.64
		v-4.62h1.399v4.62c0,6.908,1.492,12.46,4.48,16.66c2.985,4.2,7.746,6.3,14.279,6.3c6.532,0,11.292-2.1,14.28-6.3
		c2.986-4.2,4.48-9.752,4.48-16.66c0-4.666-1.33-8.771-3.99-12.32c-2.66-3.546-5.858-6.51-9.59-8.89
		c-3.734-2.38-7.49-4.806-11.271-7.28c-3.779-2.472-7-5.576-9.66-9.31c-2.659-3.732-3.989-8.072-3.989-13.02
		c0-7.466,1.609-13.346,4.83-17.64C362.302,15.847,367.318,13.653,374.132,13.559z"/>
</g>
<g>
	<path d="M318.116,18.984c-3.92-4.246-9.614-6.37-17.08-6.37c-7.468,0-13.16,2.124-17.08,6.37c-3.92,4.248-5.88,10.338-5.88,18.27
		v18.101h15.4V36.274c0-6.44,2.66-9.66,7.979-9.66c5.32,0,7.98,3.22,7.98,9.66v10.5h14.56v-9.52
		C323.995,29.322,322.035,23.232,318.116,18.984z"/>
	<path d="M302.436,71.134h7v18.06c0,6.348-2.66,9.52-7.98,9.52c-5.319,0-7.979-3.172-7.979-9.52V72.841h-15.4v15.373
		c0,7.934,1.96,14.024,5.88,18.27c3.92,4.248,9.612,6.37,17.08,6.37c7.466,0,13.16-2.122,17.08-6.37
		c3.92-4.246,5.88-10.336,5.88-18.27v-31.08h-21.56V71.134z"/>
</g>
<rect x="214.713" y="57.064" fill="#2B96F1" width="85.505" height="14.153"/>
<g>
	<rect x="258.057" y="13.734" width="13.721" height="41.454"/>
	<polygon points="236.778,55.189 236.778,40.754 240.678,55.189 253.417,55.189 242.238,13.734 222.917,13.734 222.917,55.189 	"/>
	<polygon points="245.403,72.675 255.957,111.734 271.778,111.734 271.778,72.675 	"/>
	<rect x="222.917" y="72.675" width="13.86" height="39.06"/>
</g>
<polygon fill="#2B96F1" points="219.5,50.025 205.42,64.104 219.5,78.184 "/>
<path d="M193.667,44.25h-0.006v-6.295c0-16.146-7.654-24.22-22.96-24.22h-24.36v98h24.36c15.306,0,22.96-8.072,22.96-24.22V79h0.006
	V44.25z M178.261,88.214c0,6.348-2.614,9.52-7.84,9.52h-8.68v-70h8.68c5.226,0,7.84,3.174,7.84,9.52v6.996h-0.011V79h0.011V88.214z"
	/>
<polygon points="203.002,63.979 215.36,51.621 215.36,45.234 215.36,13.734 199.959,13.734 199.959,45.234 199.959,55.189 
	199.959,72.675 199.959,86.689 199.959,111.734 215.36,111.734 215.36,86.689 215.36,76.337 "/>
<g>
	<path fill="#2B96F1" d="M149.243,136.387c-0.104,0.229-0.375,0.527-0.81,0.898l-0.112-0.323c-0.089,0.167-0.184,0.253-0.282,0.26
		c-0.08,0.005-0.208-0.095-0.383-0.304l-0.062-0.026c-0.082-0.014-0.172-0.018-0.271-0.011c-0.199,0.014-0.459,0.112-0.777,0.294
		c-0.317,0.183-0.556,0.29-0.714,0.32c-0.738,0.633-1.229,1.088-1.47,1.365c-0.483,0.535-0.814,1.109-0.992,1.723
		c-0.197,0.053-0.397,0.338-0.603,0.854c-0.041,0.284-0.053,0.545-0.036,0.784c0.058,0.838,0.547,1.526,1.466,2.063
		c0.439,0.25,1.261,0.685,2.466,1.302c0.918,0.799,1.409,1.226,1.473,1.282c0.562,0.583,0.86,1.123,0.895,1.622
		c0.026,0.379-0.066,0.777-0.278,1.192c-0.545,0.82-1.334,1.577-2.368,2.27c-0.574,0.4-1.539,0.949-2.894,1.644
		c-0.221-0.005-0.426,0.08-0.614,0.253c-0.574,0.1-1.101,0.167-1.58,0.2c-1.057,0.073-1.875-0.02-2.455-0.281l-0.156-0.531
		c0.173-0.091,0.331-0.143,0.47-0.153c0.101-0.007,0.257,0.018,0.472,0.072c0.214,0.056,0.39,0.069,0.528,0.039
		c2.262-0.056,4.567-1.199,6.92-3.427c0.526-0.497,0.721-1.032,0.58-1.604c-0.147-0.391-0.739-0.961-1.772-1.712
		c-1.353-0.708-2.369-1.349-3.051-1.924c-0.91-0.397-1.402-1.154-1.48-2.272c-0.018-0.26-0.007-0.531,0.034-0.814
		c0.317-1.205,0.896-2.318,1.737-3.338c0.842-1.02,1.824-1.81,2.948-2.37c0.427-0.21,0.929-0.334,1.508-0.375
		c1.117-0.078,1.691,0.104,1.722,0.542c0.003,0.041-0.007,0.116-0.029,0.228C149.248,136.242,149.24,136.327,149.243,136.387z"/>
	<path fill="#2B96F1" d="M156.878,151.074l-0.084,0.096c-0.096,0.067-0.129,0.17-0.1,0.308c-1.513,1.308-2.745,2.035-3.697,2.181
		c-0.537,0.057-1.073-0.005-1.606-0.189c-0.456-0.208-0.777-0.507-0.965-0.896c-0.161-0.309-0.298-0.831-0.409-1.565
		c0.399-3.194,1.725-5.763,3.977-7.703c0.078-0.025,0.305-0.081,0.68-0.167c0.315-0.082,0.584-0.041,0.806,0.125
		c0.223,0.165,0.345,0.408,0.366,0.727c-0.022,0.262-0.034,0.514-0.038,0.754c-0.259,1.181-1.323,2.598-3.193,4.251
		c-0.112,0.109-0.435,0.23-0.967,0.368c-0.315,0.082-0.452,0.272-0.412,0.57c-0.229,0.457-0.31,0.874-0.243,1.25
		c0.011,0.159,0.111,0.453,0.302,0.881c0.372,0.455,0.937,0.656,1.695,0.604l0.114-0.098c0.318-0.022,0.75-0.163,1.294-0.421
		c0.534-0.378,1.389-0.918,2.563-1.622c0.025,0.079,0.04,0.148,0.044,0.208C157.013,150.854,156.971,150.968,156.878,151.074z
		 M154.69,144.67c-0.064-0.056-0.139-0.111-0.222-0.165c-1.013,0.731-1.854,1.893-2.525,3.483c0.1-0.007,0.207-0.054,0.321-0.143
		c0.466-0.494,0.934-0.986,1.4-1.48C154.2,145.707,154.541,145.142,154.69,144.67z"/>
	<path fill="#2B96F1" d="M158.725,151.698c2.235-1.017,3.953-2.559,5.152-4.627c0.013-0.102,0.089-0.317,0.227-0.647
		c0.137-0.33,0.199-0.595,0.186-0.795c-0.047-0.678-0.529-1.116-1.444-1.313c-0.587-0.06-1.161-0.11-1.725-0.151
		c-0.097,0.067-0.572,0.281-1.43,0.64c-0.583,0.261-0.983,0.56-1.201,0.896c-0.033,0.103-0.207,0.336-0.522,0.698
		c-0.018,0.041-0.133,0.25-0.348,0.625c-0.229-0.986-0.34-1.57-0.332-1.751c0.661-1.148,1.817-1.97,3.468-2.466
		c1.412-0.158,2.714,0.112,3.905,0.812c0.657,0.796,1.005,1.485,1.045,2.063c0.024,0.339-0.043,0.675-0.2,1.006
		c-0.16,0.011-0.244,0.087-0.255,0.228c-0.011,0.141-0.031,0.278-0.062,0.41c-0.031,0.133-0.125,0.225-0.281,0.275
		c-0.636,0.967-1.442,1.915-2.42,2.844c-1.112,1.02-2.138,1.702-3.076,2.048c-0.391,0.147-0.643,0.265-0.757,0.354
		c-0.229,0.176-0.31,0.442-0.245,0.799c-0.12,0.87-0.351,2.179-0.69,3.927c-0.11,0.128-0.179,0.453-0.203,0.976
		c-0.19,0.995-0.563,2.565-1.116,4.708c-0.041-0.018-0.241-0.014-0.601,0.011c-0.198,0.034-0.346-0.066-0.442-0.3
		c-0.044-0.357,0.031-0.859,0.227-1.504c0.196-0.645,0.282-1.127,0.261-1.446c-0.009-0.12-0.026-0.239-0.055-0.357
		c0.161-0.272,0.292-0.712,0.39-1.32c0.112-0.689,0.221-1.148,0.325-1.375c0.122-0.55,0.306-1.375,0.551-2.474
		c0.178-0.895,0.21-1.749,0.093-2.562c0.193-0.093,0.321-0.283,0.382-0.568c0.024-0.222,0.059-0.456,0.102-0.699
		c-0.044-0.337-0.011-0.731,0.099-1.18c0.122-0.549,0.187-0.915,0.194-1.096c-0.002-0.04,0.003-0.391,0.018-1.054
		c0.009-0.441,0.129-0.74,0.358-0.896c0.191-0.134,0.505-0.096,0.94,0.115c0.083,0.035,0.205,0.066,0.367,0.095
		c-0.049,0.165-0.128,0.61-0.237,1.34c-0.059,0.605-0.17,1.015-0.336,1.226c0.028,0.419-0.061,1.017-0.267,1.793
		C158.796,151.122,158.782,151.354,158.725,151.698z"/>
	<path fill="#2B96F1" d="M172.376,151.232c-0.213,0.115-0.56,0.329-1.038,0.643c-0.259,0.038-0.688-0.093-1.29-0.392
		c-0.031-0.158-0.131-0.422-0.296-0.792c-0.166-0.369-0.257-0.664-0.271-0.883c-0.147,0.19-0.246,0.358-0.296,0.501
		c-0.676,0.969-1.068,1.517-1.18,1.646c-0.544,0.539-1.148,0.781-1.813,0.728c-0.567-0.382-0.88-0.981-0.937-1.8
		c-0.099-1.416-0.034-2.503,0.194-3.261c0.564-1.964,1.835-3.746,3.809-5.347l0.479-0.033c0.459-0.032,0.707,0.222,0.744,0.761
		c0.013,0.179-0.022,0.543-0.104,1.09c-0.082,0.266-0.278,0.62-0.588,1.063c-0.051,0.145-0.28,0.301-0.689,0.469
		c0.063-0.525,0.195-0.935,0.396-1.23c0.015-0.061,0.055-0.224,0.116-0.489c0.017-0.041,0.022-0.101,0.017-0.182
		c-0.004-0.059-0.019-0.129-0.044-0.208c0.094-0.086,0.14-0.16,0.136-0.22c-0.122-0.011-0.319,0.173-0.594,0.553
		c-0.057,0.044-0.151,0.141-0.281,0.291c-1.892,2.497-2.791,4.704-2.697,6.622c0.119,0.573,0.321,0.88,0.604,0.92
		c0.666-0.227,1.219-0.785,1.658-1.678c0.523-0.538,0.961-1.47,1.31-2.798c0.185-0.513,0.506-1.809,0.964-3.885
		c0.066-0.185,0.276-0.35,0.627-0.495c0.193,0.188,0.298,0.4,0.314,0.64c0.01,0.14-0.018,0.332-0.08,0.577
		c-0.059,0.305-0.096,0.508-0.107,0.609c-0.646,2.25-0.944,3.734-0.895,4.453c0.064,0.938,0.299,1.563,0.702,1.876
		c0.077-0.025,0.317-0.172,0.721-0.441c0.345-0.224,0.558-0.339,0.638-0.344c0.026,0.099,0.044,0.198,0.051,0.297
		C172.682,150.871,172.588,151.118,172.376,151.232z"/>
	<path fill="#2B96F1" d="M174.91,144.832c0.58-0.882,1.193-1.711,1.842-2.488c0.646-0.777,1.388-1.234,2.22-1.372
		c0.376-0.066,0.73-0.031,1.06,0.106c0.241,0.284,0.393,0.594,0.456,0.931c0.013,0.18-0.029,0.734-0.125,1.663l-0.415,0.088
		c-0.068-0.115-0.155-0.51-0.262-1.185c-0.067-0.376-0.175-0.619-0.322-0.729c-0.957,0.367-1.812,1.048-2.564,2.042
		c-0.352,0.426-0.693,0.851-1.024,1.274c-0.386,0.508-0.634,0.986-0.742,1.435c-0.14,0.03-0.25,0.298-0.335,0.805
		c-0.076,0.366-0.149,0.602-0.222,0.707c-0.158,0.333-0.381,1.019-0.67,2.062c0.031,0.159,0.054,0.488,0.069,0.987
		c-0.052,0.425-0.233,0.698-0.545,0.82c-0.09-0.135-0.172-0.168-0.248-0.104c-0.094,0.107-0.179,0.163-0.259,0.168
		c-0.16,0.011-0.309-0.109-0.446-0.359c0.239-1.179,0.751-3.912,1.537-8.196c-0.093-0.173-0.143-0.321-0.15-0.44
		c-0.016-0.22,0.114-0.369,0.39-0.448c0.649-0.166,1.008-0.06,1.074,0.316c0.003,0.041-0.019,0.157-0.065,0.351
		s-0.051,0.439-0.01,0.737c-0.118,0.028-0.187,0.063-0.203,0.104c0.003,0.04,0.02,0.139,0.051,0.297l-0.071,0.275
		C174.933,144.74,174.926,144.791,174.91,144.832z"/>
	<path fill="#2B96F1" d="M186.202,150.274c-0.213,0.115-0.56,0.329-1.038,0.643c-0.259,0.038-0.688-0.093-1.29-0.392
		c-0.031-0.158-0.131-0.422-0.296-0.792c-0.166-0.369-0.257-0.664-0.271-0.883c-0.147,0.191-0.246,0.358-0.296,0.501
		c-0.676,0.97-1.068,1.518-1.18,1.646c-0.544,0.539-1.148,0.781-1.813,0.727c-0.567-0.381-0.88-0.981-0.937-1.799
		c-0.099-1.417-0.034-2.504,0.194-3.262c0.564-1.964,1.835-3.746,3.809-5.346l0.479-0.033c0.459-0.032,0.707,0.222,0.744,0.761
		c0.013,0.179-0.022,0.542-0.104,1.089c-0.082,0.266-0.278,0.621-0.588,1.063c-0.051,0.144-0.28,0.3-0.689,0.469
		c0.063-0.525,0.195-0.936,0.396-1.23c0.015-0.062,0.055-0.224,0.116-0.49c0.017-0.041,0.022-0.101,0.017-0.182
		c-0.004-0.059-0.019-0.128-0.044-0.207c0.094-0.086,0.14-0.16,0.136-0.22c-0.122-0.011-0.319,0.173-0.594,0.553
		c-0.057,0.044-0.151,0.141-0.281,0.29c-1.892,2.497-2.791,4.704-2.697,6.622c0.119,0.573,0.321,0.88,0.604,0.92
		c0.666-0.227,1.219-0.786,1.658-1.679c0.523-0.537,0.961-1.47,1.31-2.797c0.185-0.514,0.506-1.81,0.964-3.886
		c0.066-0.185,0.276-0.35,0.627-0.495c0.193,0.187,0.298,0.4,0.314,0.64c0.01,0.14-0.018,0.331-0.08,0.576
		c-0.059,0.305-0.096,0.508-0.107,0.609c-0.646,2.25-0.944,3.734-0.895,4.453c0.064,0.938,0.299,1.563,0.702,1.875
		c0.077-0.025,0.317-0.172,0.721-0.441c0.345-0.224,0.558-0.339,0.638-0.345c0.026,0.099,0.044,0.198,0.051,0.297
		C186.508,149.912,186.414,150.159,186.202,150.274z"/>
	<path fill="#2B96F1" d="M188.388,144.499l0.079-0.155c0.016-0.062,0.022-0.103,0.021-0.123c0.091-0.126,0.305-0.512,0.642-1.157
		c0.247-0.479,0.514-0.837,0.797-1.078c0.501-1.158,1.396-1.71,2.682-1.66c0.78,0.267,1.229,0.947,1.345,2.042
		c0.176,1.671-0.24,3.334-1.248,4.988c-0.538,1.2-1.689,2.242-3.452,3.126c-0.465,0.232-0.957,0.367-1.475,0.403
		c-1.098,0.076-1.766-0.449-2.005-1.575c0.325,0.058,0.657,0.215,0.995,0.472c0.212,0.166,0.427,0.231,0.646,0.196
		c1.171-0.161,2.214-0.665,3.128-1.51c0.914-0.845,1.55-1.852,1.911-3.02c0.395-1.25,0.573-2.135,0.537-2.653
		c-0.023-0.339-0.104-0.645-0.244-0.916c-0.104-0.052-0.183-0.178-0.236-0.375c0.038-0.022,0.038-0.032-0.002-0.029
		c-0.124-0.052-0.245-0.074-0.365-0.065c-0.2,0.014-0.413,0.11-0.642,0.286c-0.476,0.374-0.87,0.893-1.186,1.555
		c-0.562,0.861-1.018,1.665-1.366,2.41l0.032,0.028l-0.097,0.337c-0.082-0.014-0.132-0.001-0.148,0.04l-0.023,0.092
		c-0.049,0.165-0.112,0.269-0.188,0.314c-0.104,0.248-0.318,0.614-0.646,1.097c-0.017,0.062-0.184,0.254-0.502,0.577
		c-0.297,0.061-0.5,0.015-0.61-0.139c-0.111-0.152-0.167-0.379-0.168-0.68c-0.004-0.06,0.001-0.121,0.018-0.181l-0.011-0.15
		c1.332-4.502,2.198-8.051,2.601-10.645c0.15-0.131,0.316-0.202,0.496-0.214c0.219-0.016,0.396,0.082,0.531,0.293
		c0.057,0.237,0.027,0.599-0.09,1.088s-0.167,0.834-0.153,1.033c-0.079,0.327-0.217,0.778-0.418,1.353
		c-0.076,0.347-0.215,0.958-0.414,1.833C188.979,142.333,188.722,143.253,188.388,144.499z M191.73,142.402
		c-0.014-0.199,0.06-0.304,0.219-0.315c0.141-0.01,0.217,0.085,0.23,0.284L191.73,142.402z"/>
	<path fill="#2B96F1" d="M198.529,133.33c-0.203,0.254-0.267,0.49-0.191,0.705c-0.256,0.359-0.447,0.914-0.576,1.664
		c-0.143,0.833-0.293,1.403-0.452,1.715c-0.109,0.449-0.279,1.182-0.509,2.2c0.069,0.136,0.049,0.268-0.063,0.396
		c-0.015,0.082-0.172,0.844-0.473,2.288c-0.199,0.876-0.308,1.635-0.322,2.278c-0.109,0.168-0.165,0.447-0.168,0.838
		c-0.003,0.392-0.06,0.661-0.17,0.809c-0.113,1.251-0.119,2.043-0.016,2.377c-0.045,0.224,0.027,0.539,0.217,0.947
		c0.197-0.033,0.409-0.158,0.635-0.375c0.301-0.281,0.49-0.445,0.567-0.49c0.211-0.135,0.508-0.196,0.89-0.183
		c-0.313,0.684-0.723,1.283-1.229,1.8c-0.119,0.008-0.271,0.059-0.455,0.152c-0.185,0.093-0.316,0.143-0.396,0.148
		c-0.12,0.008-0.263-0.032-0.43-0.122c-0.424-0.331-0.658-0.525-0.702-0.582c-0.179-0.268-0.289-0.702-0.331-1.3
		c-0.02-0.279-0.032-0.609-0.038-0.99c0.034-0.083,0.081-0.417,0.142-1.002c0.142-1.413,0.289-2.607,0.442-3.58
		c0.283-1.984,0.66-4.075,1.13-6.273c0.118-0.589,0.314-1.245,0.584-1.965c0.318-0.904,0.486-1.377,0.504-1.418
		c0.062-0.245,0.23-0.577,0.502-0.998c0.164-0.232,0.355-0.355,0.575-0.371c0.199-0.014,0.407,0.092,0.624,0.317
		C198.902,132.633,198.805,132.971,198.529,133.33z"/>
	<path fill="#2B96F1" d="M204.552,147.768l-0.084,0.096c-0.096,0.067-0.128,0.17-0.099,0.308c-1.514,1.308-2.746,2.035-3.698,2.181
		c-0.537,0.057-1.073-0.005-1.606-0.189c-0.456-0.209-0.777-0.507-0.964-0.896c-0.162-0.309-0.299-0.831-0.41-1.565
		c0.399-3.195,1.726-5.763,3.977-7.704c0.078-0.025,0.306-0.081,0.681-0.167c0.314-0.082,0.583-0.04,0.806,0.125
		c0.222,0.165,0.344,0.408,0.365,0.727c-0.022,0.262-0.034,0.514-0.037,0.754c-0.26,1.181-1.324,2.598-3.194,4.251
		c-0.112,0.109-0.435,0.231-0.966,0.368c-0.316,0.082-0.453,0.272-0.412,0.57c-0.229,0.457-0.311,0.874-0.244,1.25
		c0.011,0.16,0.111,0.453,0.302,0.881c0.372,0.455,0.938,0.656,1.695,0.604l0.114-0.098c0.318-0.022,0.75-0.163,1.294-0.421
		c0.534-0.377,1.39-0.918,2.563-1.621c0.025,0.079,0.041,0.147,0.045,0.207C204.687,147.548,204.645,147.662,204.552,147.768z
		 M202.364,141.364c-0.064-0.056-0.138-0.111-0.222-0.165c-1.013,0.731-1.854,1.893-2.525,3.483c0.1-0.007,0.207-0.054,0.321-0.143
		c0.467-0.494,0.934-0.986,1.4-1.48C201.874,142.401,202.216,141.836,202.364,141.364z"/>
	<path fill="#2B96F1" d="M208.213,147.665c0.031,0.159-0.007,0.482-0.113,0.97c-0.316,1.506-1.082,2.752-2.297,3.739
		c-0.063-0.056-0.177-0.104-0.34-0.142c-0.164-0.039-0.249-0.118-0.257-0.238c-0.005-0.06,0.005-0.141,0.028-0.242
		c0.022-0.102,0.091-0.197,0.205-0.285l0.056-0.063c0.114-0.088,0.178-0.183,0.191-0.284c0.553-0.981,0.891-1.606,1.013-1.874
		c0.311-0.724,0.473-1.417,0.487-2.079c0.111-0.128,0.257-0.198,0.436-0.211c0.319-0.022,0.551,0.123,0.692,0.433
		C208.242,147.493,208.208,147.585,208.213,147.665z"/>
	<path fill="#2B96F1" d="M229.642,135.774c-0.047,0.204-0.336,0.645-0.871,1.323c-0.771,0.735-1.755,1.585-2.95,2.55
		c-0.249,0.178-0.688,0.489-1.319,0.933c-0.462,0.273-1.278,0.64-2.449,1.102c-0.099,0.027-0.35,0.155-0.755,0.384
		c-0.216,0.075-0.317,0.202-0.305,0.382c0.625,0.337,1.497,0.989,2.616,1.954c1.119,0.965,1.991,1.606,2.614,1.923
		c0.353,0.176,1.018,0.361,1.993,0.554c0.285,0.061,0.668,0.084,1.148,0.071c0.42-0.009,0.912,0.007,1.477,0.047
		c-0.279,0.321-0.721,0.602-1.325,0.844c-1.449,0.201-2.829-0.035-4.139-0.705c-0.894-0.459-1.962-1.258-3.203-2.395
		c-0.144-0.05-0.572-0.291-1.283-0.723c-0.502-0.306-0.957-0.495-1.362-0.567l-0.054,0.094c0.014,0.2-0.048,0.615-0.185,1.246
		c-0.123,0.55-0.146,0.943-0.068,1.178c0.035-0.062,0.14-0.291,0.313-0.684c0.121-0.269,0.361-0.416,0.722-0.441
		c0.088,0.415-0.002,0.917-0.271,1.507c-0.271,0.591-0.396,1.015-0.378,1.274c-0.14,0.311-0.452,0.723-0.938,1.238
		c-0.688-0.093-1.056-0.488-1.104-1.186c-0.021-0.3,0.043-0.825,0.191-1.577c0.133-0.69,0.178-1.195,0.136-1.513
		c0.187-0.495,0.239-0.899,0.156-1.214l-2.154,0.149c-0.032-0.178-0.157-0.32-0.375-0.425c-0.218-0.106-0.331-0.218-0.34-0.337
		c-0.007-0.1,0.015-0.222,0.065-0.366c0.649-0.466,1.663-0.727,3.043-0.782l0.113-0.098c0.006-0.201,0.07-0.577,0.192-1.127
		c0.108-0.468,0.142-0.841,0.103-1.12l0.316-0.653c0.361-1.429,0.804-3.584,1.325-6.468c-0.307-0.079-0.473-0.318-0.501-0.717
		c-0.054-0.196,0.024-0.372,0.234-0.527c0.174-0.092,0.348-0.194,0.52-0.307c0.192,0.167,0.512,0.286,0.958,0.354
		c0.242,0.043,0.562,0.172,0.958,0.385c0.664,0.034,1.655,0.166,2.975,0.395c1.66,0.526,2.637,0.87,2.929,1.03
		c1,0.552,1.551,1.407,1.65,2.562L229.642,135.774z M224.101,133.061c-0.117,0.048-0.236,0.077-0.355,0.085
		c-0.18,0.013-0.433-0.025-0.76-0.112c-0.326-0.088-0.56-0.127-0.699-0.118c-0.141,0.01-0.268,0.049-0.383,0.117
		c-0.045,0.224-0.146,0.566-0.305,1.028c-0.159,0.462-0.207,0.852-0.145,1.168l-0.15,0.01c-0.07,0.426-0.259,1.181-0.564,2.264
		c-0.273,0.981-0.41,1.753-0.41,2.314c-0.014,0.102-0.104,0.323-0.27,0.665c-0.168,0.342-0.235,0.593-0.204,0.751
		c0.75-0.172,1.838-0.669,3.265-1.49c1.253-0.728,2.268-1.4,3.048-2.016c0.247-0.198,0.918-0.925,2.014-2.185
		c0.138-0.33,0.198-0.615,0.182-0.854c-0.013-0.18-0.073-0.326-0.182-0.439C227.167,133.78,225.807,133.383,224.101,133.061z"/>
	<path fill="#2B96F1" d="M234.714,146.91c-0.212,0.115-0.559,0.329-1.038,0.643c-0.258,0.038-0.688-0.093-1.29-0.392
		c-0.031-0.158-0.13-0.421-0.296-0.792c-0.165-0.369-0.256-0.664-0.271-0.883c-0.147,0.191-0.245,0.358-0.296,0.501
		c-0.675,0.97-1.067,1.518-1.179,1.646c-0.544,0.539-1.148,0.781-1.814,0.727c-0.567-0.381-0.88-0.981-0.937-1.799
		c-0.099-1.417-0.033-2.504,0.194-3.261c0.565-1.964,1.836-3.747,3.81-5.347l0.479-0.033c0.459-0.032,0.707,0.222,0.745,0.761
		c0.012,0.179-0.022,0.542-0.104,1.089c-0.083,0.267-0.278,0.621-0.589,1.063c-0.05,0.144-0.279,0.3-0.688,0.469
		c0.063-0.525,0.195-0.936,0.396-1.23c0.016-0.062,0.055-0.224,0.117-0.489c0.017-0.041,0.022-0.102,0.017-0.182
		c-0.004-0.059-0.019-0.128-0.044-0.207c0.094-0.086,0.139-0.16,0.135-0.22c-0.121-0.011-0.318,0.173-0.593,0.553
		c-0.058,0.044-0.151,0.141-0.281,0.29c-1.892,2.497-2.791,4.704-2.698,6.622c0.12,0.573,0.321,0.88,0.605,0.92
		c0.665-0.227,1.219-0.786,1.658-1.679c0.523-0.537,0.96-1.47,1.309-2.797c0.186-0.514,0.507-1.81,0.964-3.886
		c0.067-0.185,0.277-0.35,0.628-0.495c0.192,0.187,0.298,0.4,0.314,0.64c0.01,0.14-0.018,0.331-0.08,0.577
		c-0.06,0.305-0.096,0.508-0.108,0.609c-0.646,2.25-0.943,3.734-0.894,4.453c0.064,0.938,0.298,1.563,0.701,1.875
		c0.078-0.025,0.318-0.172,0.721-0.441c0.346-0.224,0.559-0.339,0.638-0.345c0.027,0.099,0.044,0.198,0.051,0.297
		C235.02,146.547,234.927,146.795,234.714,146.91z"/>
	<path fill="#2B96F1" d="M241.201,145.497c-0.11,0.128-0.326,0.344-0.646,0.646c-0.715,0.691-1.57,1.071-2.568,1.141
		c-0.52,0.036-1.024-0.04-1.519-0.226c-0.812-0.444-1.27-1.386-1.369-2.822c0.437-3.258,1.479-5.425,3.128-6.502
		c0.687,0.073,1.14,0.393,1.359,0.959c0.049,0.117,0.036,0.238-0.035,0.363c-0.071,0.125-0.178,0.193-0.316,0.203
		c-0.06,0.004-0.137-0.025-0.231-0.089c-0.095-0.063-0.182-0.093-0.262-0.087c-0.04,0.003-0.089,0.016-0.147,0.04
		c-0.075,0.085-0.308,0.333-0.7,0.74c-0.28,0.301-0.452,0.583-0.514,0.848c-0.199,0.295-0.414,0.821-0.642,1.578
		c-0.253,0.399-0.39,0.889-0.409,1.472l0.105,1.526c0.246,0.665,0.688,0.975,1.327,0.93c0.519-0.036,1.596-0.551,3.231-1.547
		l0.027-0.032c0.111-0.128,0.3-0.161,0.564-0.1C241.613,144.917,241.485,145.237,241.201,145.497z"/>
	<path fill="#2B96F1" d="M246.017,137.314c0.424,0.031,0.846,0.052,1.268,0.062c0.485,0.067,0.889,0.23,1.206,0.488l0.07,0.566
		c-0.318,0.042-0.889,0.062-1.711,0.059c-0.501-0.005-0.928,0.064-1.278,0.209c-1.124,2.584-1.598,4.712-1.422,6.383
		c0.017,0.239,0.066,0.461,0.151,0.667c0.084,0.205,0.296,0.295,0.636,0.271c0.199-0.014,0.436-0.069,0.71-0.169
		c0.218-0.035,0.561-0.219,1.029-0.553c0.468-0.333,0.921-0.524,1.358-0.575c-0.285,1.102-1.152,1.894-2.603,2.375
		c-0.177,0.052-0.335,0.083-0.474,0.093c-0.539,0.037-0.97-0.104-1.293-0.422c-0.399-0.553-0.637-1.229-0.712-2.025
		c-0.116-1.094,0.073-2.421,0.566-3.979c0.174-0.373,0.364-0.958,0.57-1.754c-0.698,0.069-1.273,0.439-1.728,1.112
		c-0.357,0.045-0.659-0.255-0.904-0.9c0.024-0.222,0.247-0.478,0.668-0.768c0.281-0.279,0.668-0.487,1.16-0.622
		c0.435-0.09,0.868-0.19,1.302-0.301c0.811-1.9,1.339-3.681,1.585-5.342c0.125-0.209,0.268-0.319,0.428-0.331
		c0.258-0.037,0.521,0.134,0.788,0.517c0.035,1.382-0.394,3.005-1.286,4.871C246.064,137.271,246.035,137.293,246.017,137.314z"/>
	<path fill="#2B96F1" d="M252.275,144.729c-0.158,0.312-0.428,0.762-0.809,1.35c-0.745,0.533-1.297,0.801-1.658,0.807
		c-0.36,0.005-0.78-0.267-1.259-0.815c-0.065-0.356-0.11-0.714-0.135-1.073c-0.146-2.095,0.021-4.181,0.498-6.259
		c0.077-0.326,0.302-1.003,0.671-2.032c0.11-0.147,0.265-0.228,0.465-0.242c0.198-0.014,0.394,0.043,0.583,0.169
		c0.189,0.128,0.29,0.281,0.303,0.46c0.007,0.1-0.018,0.192-0.071,0.276c-0.319,0.604-0.606,1.385-0.86,2.345l-0.442,3.158
		c-0.094,0.668-0.066,1.499,0.083,2.491c0.048,0.117,0.158,0.27,0.332,0.458c0.081,0.015,0.196-0.059,0.346-0.22
		s0.253-0.253,0.312-0.277c0.229-0.176,0.536-0.508,0.924-0.997c0.387-0.487,0.734-0.813,1.045-0.975l0.632-0.856
		C252.956,143.72,252.637,144.463,252.275,144.729z M252.02,134.101l-0.087,0.066c-0.037,0.043-0.07,0.146-0.098,0.308
		c-0.953,0.146-1.478-0.048-1.575-0.583c-0.021-0.318,0.074-0.526,0.288-0.621c0.078-0.025,0.317-0.042,0.719-0.05
		c0.099-0.007,0.227-0.046,0.382-0.117c0.164,0.049,0.346,0.217,0.547,0.504C252.226,133.767,252.167,133.931,252.02,134.101z"/>
	<path fill="#2B96F1" d="M261.712,136.407l0.576,0.08c-0.099,0.308-0.244,0.528-0.436,0.662c-0.359,0.306-0.729,0.612-1.108,0.919
		c-0.19,0.153-0.663,0.267-1.42,0.339l-0.275-0.072c-0.123-0.031-0.214-0.045-0.274-0.041c-0.02,0.302-0.056,0.786-0.109,1.451
		c-0.871,3.047-2.029,5.283-3.475,6.706c-0.338,0.324-0.812,0.437-1.42,0.339c-0.791-0.426-1.229-1.248-1.313-2.465
		c-0.021-0.299-0.025-0.649-0.013-1.052c0.182-1.416,0.361-2.451,0.536-3.104c-0.011-0.44,0.074-0.947,0.255-1.521
		c0.263-0.84,0.409-1.332,0.439-1.474c0.173-0.112,0.339-0.173,0.499-0.185c0.239-0.017,0.456,0.078,0.651,0.285
		c0.013,0.481-0.08,1.008-0.281,1.583c-0.303,0.843-0.469,1.336-0.499,1.478c-0.004,0.241-0.101,0.87-0.291,1.885
		c-0.129,0.73-0.177,1.346-0.143,1.844c0.057,0.818,0.244,1.356,0.563,1.615c0.233-0.096,0.47-0.303,0.709-0.621
		c0.348-0.465,0.551-0.73,0.606-0.794c0.839-1.481,1.387-2.542,1.644-3.18c0.476-1.236,0.676-2.393,0.602-3.471
		c-0.021-0.299-0.062-0.597-0.122-0.894c0.151-0.131,0.297-0.201,0.437-0.21c0.139-0.01,0.331,0.087,0.576,0.29
		c0.244,0.205,0.408,0.323,0.491,0.357c0.284,0.061,0.557,0.082,0.816,0.063c0.339-0.023,0.671-0.146,0.997-0.37
		C261.372,136.581,261.632,136.432,261.712,136.407z"/>
	<path fill="#2B96F1" d="M265.814,143.52l-0.084,0.096c-0.096,0.067-0.129,0.17-0.1,0.308c-1.513,1.307-2.745,2.035-3.697,2.181
		c-0.537,0.057-1.073-0.005-1.606-0.189c-0.456-0.208-0.777-0.507-0.965-0.896c-0.161-0.309-0.298-0.831-0.409-1.565
		c0.399-3.195,1.725-5.763,3.977-7.704c0.078-0.025,0.305-0.081,0.68-0.167c0.315-0.082,0.584-0.041,0.806,0.124
		c0.223,0.165,0.345,0.408,0.366,0.727c-0.022,0.262-0.034,0.514-0.038,0.754c-0.259,1.181-1.323,2.599-3.193,4.251
		c-0.112,0.109-0.435,0.231-0.967,0.369c-0.315,0.082-0.452,0.271-0.412,0.569c-0.229,0.457-0.31,0.874-0.243,1.25
		c0.011,0.16,0.111,0.454,0.302,0.881c0.372,0.455,0.938,0.656,1.695,0.604l0.114-0.098c0.318-0.022,0.75-0.162,1.294-0.421
		c0.534-0.377,1.39-0.918,2.563-1.621c0.025,0.079,0.04,0.148,0.044,0.208C265.949,143.3,265.907,143.414,265.814,143.52z
		 M263.625,137.116c-0.064-0.056-0.139-0.111-0.222-0.165c-1.013,0.731-1.854,1.893-2.525,3.483c0.1-0.007,0.207-0.054,0.321-0.142
		c0.466-0.494,0.934-0.986,1.4-1.48C263.136,138.153,263.478,137.587,263.625,137.116z"/>
	<path fill="#2B96F1" d="M269.475,143.417c0.031,0.159-0.007,0.481-0.113,0.97c-0.316,1.506-1.082,2.751-2.297,3.738
		c-0.063-0.056-0.177-0.104-0.341-0.142c-0.163-0.039-0.248-0.118-0.257-0.238c-0.004-0.06,0.006-0.141,0.028-0.242
		c0.023-0.103,0.092-0.197,0.206-0.285l0.056-0.064c0.114-0.088,0.178-0.183,0.191-0.284c0.553-0.981,0.891-1.606,1.013-1.875
		c0.31-0.724,0.473-1.417,0.487-2.079c0.111-0.128,0.257-0.199,0.436-0.211c0.319-0.022,0.55,0.123,0.692,0.433
		C269.503,143.245,269.469,143.336,269.475,143.417z"/>
	<path fill="#2B96F1" d="M282.27,129.748l-2.232,9.447c0.061,0.297,0.011,0.741-0.148,1.333c-0.222,0.838-0.34,1.307-0.353,1.408
		c-0.318,0.904-0.53,1.891-0.637,2.96c-0.287,0.201-0.648,0.196-1.084-0.015c-0.041-0.017-0.173-0.039-0.396-0.063
		c0.021-0.562,0.181-1.305,0.478-2.228c0.331-1.005,0.521-1.73,0.57-2.175c0.077-0.626,0.275-1.518,0.597-2.673
		c0.321-1.154,0.54-2.046,0.656-2.677c0.175-0.954,0.524-2.411,1.051-4.373c0.509-1.9,0.85-3.357,1.02-4.371
		c0.465-0.232,0.717-0.36,0.755-0.383c0.379-0.026,0.675,0.194,0.888,0.66c0.164,0.33,0.25,0.715,0.261,1.155
		c0.084,0.054,0.143,0.176,0.176,0.364c0.033,0.188,0.092,0.31,0.176,0.363c-0.07,0.728-0.061,2.02,0.028,3.878
		c0.067,1.559,0.311,2.605,0.729,3.137c0.461-0.292,0.963-0.718,1.506-1.277l1.404-1.42c0.163-0.252,0.404-0.529,0.725-0.832
		l0.79-0.747c1.542-1.75,2.417-2.724,2.625-2.918c1.006-1.093,1.945-2,2.817-2.722c0.417-0.35,0.816-0.377,1.197-0.083
		c0.09,0.134,0.141,0.291,0.153,0.47c0.007,0.1-0.005,0.287-0.036,0.559c-0.032,0.272-0.031,0.488-0.001,0.646
		c-1.1,4.087-1.993,7.968-2.681,11.644c-0.012,0.122-0.057,0.476-0.137,1.062c-0.071,0.426-0.096,0.779-0.077,1.058
		c0.02,0.28,0.086,0.515,0.199,0.708c-0.113,0.39-0.385,0.959-0.813,1.711l-0.16-0.14c-0.256-0.223-0.5-0.275-0.732-0.16
		l-0.276-0.522c0.289-3.047,1.279-7.997,2.97-14.851c-0.009-0.12-0.04-0.147-0.097-0.083c-0.362,0.265-0.757,0.654-1.182,1.165
		l-1.053,1.306c-0.095,0.086-0.365,0.366-0.813,0.838c-1.404,1.441-2.508,2.59-3.31,3.447c-0.103,0.269-0.352,0.571-0.749,0.909
		c-0.397,0.339-0.642,0.582-0.731,0.728c-0.288,0.18-0.699,0.479-1.23,0.897c-1.079,0.055-1.787-0.458-2.122-1.537
		c-0.146-0.952-0.303-1.903-0.468-2.854c0.057-0.325,0.084-0.517,0.079-0.577c-0.008-0.12-0.066-0.236-0.174-0.349
		c0.027-0.183,0.032-0.403,0.015-0.663C282.418,130.59,282.362,130.204,282.27,129.748z"/>
	<path fill="#2B96F1" d="M302.494,139.533c-0.154,0.091-0.272,0.259-0.356,0.506c-0.116,0.35-0.192,0.545-0.229,0.587
		c-0.217,0.336-0.625,0.815-1.224,1.438c-0.539,0.899-1.383,1.449-2.531,1.649c-0.318,0.042-0.639,0.044-0.962,0.006
		c-0.805-0.326-1.354-1.029-1.65-2.111c0.016-0.643,0.138-1.343,0.366-2.101c0.148-0.451,0.362-1.118,0.643-1.999
		c0.147-0.19,0.335-0.524,0.562-1.002c0.23-0.417,0.48-0.714,0.75-0.894c0.229-0.457,0.618-0.765,1.169-0.923
		c0.202,0.026,0.517-0.197,0.946-0.667c-0.025-0.078,0.016-0.201,0.124-0.37c0.218-0.035,0.417-0.059,0.597-0.071
		c0.299-0.021,0.541-0.008,0.725,0.04c0.858,0.522,1.335,1.461,1.429,2.818c0.023,0.339,0.022,0.695-0.001,1.067
		C302.826,137.881,302.707,138.556,302.494,139.533z M301.689,135.289c-0.09-0.435-0.311-0.721-0.66-0.856l-1.284,0.57l0.324,0.338
		c0.035,0.218,0.077,0.536,0.126,0.954c0.025,0.359-0.064,0.656-0.269,0.891c-0.096,0.067-0.193,0.114-0.291,0.141
		c-0.278,0.04-0.48-0.277-0.607-0.951c-0.174,0.093-0.389,0.318-0.645,0.676c-0.312,0.423-0.534,0.689-0.667,0.798
		c-0.476,1.236-0.727,1.955-0.752,2.157c-0.144,0.532-0.199,1.036-0.166,1.515c0.018,0.24,0.053,0.478,0.11,0.714
		c0.153,0.19,0.46,0.289,0.923,0.297c2.229-0.816,3.608-2.736,4.141-5.761C301.873,136.218,301.78,135.723,301.689,135.289z"/>
	<path fill="#2B96F1" d="M308.694,140.035c-0.453,0.693-0.896,1.385-1.33,2.077c-0.589,0.763-1.232,1.168-1.931,1.216
		c-0.299,0.021-0.612-0.017-0.939-0.115c-0.508-0.386-0.786-0.928-0.835-1.626c-0.031-0.458,0.003-0.972,0.104-1.541
		c0.038-0.604,0.248-1.771,0.63-3.502c0.074-0.366,0.298-0.903,0.67-1.611l0.663-1.279c0.338-0.625,0.775-0.956,1.314-0.993
		c0.319-0.022,0.771,0.287,1.357,0.928c0.03,0.158,0.112,0.313,0.242,0.464c0.094-0.969,0.347-2.389,0.758-4.263
		c-0.01-0.139,0.131-0.71,0.423-1.713c0.104-0.228,0.266-0.349,0.485-0.364c0.358-0.025,0.621,0.137,0.785,0.486
		c0.181,1.732,0.05,3.756-0.391,6.072c-0.12,0.59-0.386,1.37-0.8,2.341c-0.242,0.559-0.339,1.187-0.29,1.884
		c0.05,0.719,0.233,1.358,0.554,1.917c0.216,0.226,0.443,0.33,0.684,0.313c0.119-0.009,0.236-0.057,0.351-0.145
		c0.272-0.119,0.547-0.349,0.824-0.689c0.201-0.274,0.412-0.56,0.632-0.856c0.129-0.169,0.395-0.378,0.799-0.627
		c0.053,0.177,0.083,0.336,0.093,0.475c-0.03,0.143-0.145,0.511-0.344,1.106c-0.556,0.661-0.89,1.045-1.003,1.152
		c-0.433,0.412-0.868,0.632-1.308,0.663c-0.199,0.014-0.412-0.012-0.637-0.077C309.611,141.415,309.09,140.85,308.694,140.035z
		 M308.412,136.416c-0.052-0.156-0.027-0.539,0.071-1.147c-0.307-0.079-0.582-0.281-0.824-0.604l-0.166-0.229
		c-0.112-0.172-0.241-0.294-0.387-0.364c-0.553,0.7-1.067,1.667-1.543,2.903l-0.009,0.302c-0.22,0.296-0.411,1.011-0.573,2.145
		c-0.062,1.127-0.087,1.78-0.074,1.959c0.018,0.26,0.065,0.507,0.142,0.742c0.026,0.099,0.16,0.139,0.399,0.123
		c1.061-0.594,2.023-1.894,2.887-3.899c-0.032-0.178-0.004-0.631,0.086-1.359C308.434,136.886,308.431,136.695,308.412,136.416z"/>
	<path fill="#2B96F1" d="M318.964,139.834l-0.084,0.096c-0.096,0.067-0.128,0.17-0.099,0.308c-1.514,1.308-2.746,2.035-3.698,2.181
		c-0.537,0.057-1.073-0.005-1.606-0.189c-0.456-0.208-0.777-0.507-0.964-0.896c-0.162-0.309-0.299-0.831-0.41-1.565
		c0.399-3.194,1.726-5.763,3.977-7.703c0.078-0.025,0.306-0.081,0.681-0.167c0.314-0.082,0.583-0.041,0.806,0.125
		c0.222,0.165,0.344,0.408,0.365,0.727c-0.021,0.262-0.034,0.514-0.037,0.754c-0.26,1.181-1.324,2.598-3.194,4.251
		c-0.111,0.109-0.435,0.23-0.966,0.368c-0.316,0.082-0.453,0.272-0.412,0.57c-0.229,0.457-0.311,0.874-0.244,1.25
		c0.011,0.159,0.111,0.453,0.302,0.881c0.372,0.455,0.938,0.656,1.695,0.604l0.114-0.098c0.318-0.022,0.75-0.163,1.294-0.421
		c0.534-0.378,1.39-0.918,2.563-1.622c0.025,0.079,0.041,0.148,0.045,0.208C319.099,139.614,319.057,139.728,318.964,139.834z
		 M316.776,133.43c-0.063-0.056-0.138-0.111-0.222-0.165c-1.012,0.731-1.854,1.893-2.525,3.483c0.1-0.007,0.207-0.054,0.321-0.143
		c0.467-0.494,0.934-0.986,1.4-1.48C316.286,134.467,316.628,133.902,316.776,133.43z"/>
	<path fill="#2B96F1" d="M323.147,124.688c-0.203,0.254-0.267,0.49-0.192,0.705c-0.256,0.359-0.447,0.914-0.575,1.664
		c-0.144,0.833-0.294,1.404-0.452,1.715c-0.11,0.449-0.279,1.182-0.51,2.201c0.069,0.135,0.049,0.268-0.062,0.396
		c-0.015,0.081-0.172,0.844-0.473,2.288c-0.2,0.876-0.309,1.635-0.323,2.278c-0.109,0.168-0.165,0.447-0.167,0.838
		c-0.004,0.391-0.061,0.661-0.17,0.809c-0.114,1.251-0.119,2.043-0.016,2.377c-0.045,0.224,0.026,0.539,0.216,0.947
		c0.198-0.033,0.41-0.159,0.636-0.375c0.301-0.281,0.49-0.444,0.567-0.49c0.211-0.135,0.508-0.195,0.889-0.182
		c-0.312,0.684-0.723,1.283-1.228,1.799c-0.119,0.008-0.272,0.059-0.456,0.152c-0.185,0.093-0.315,0.143-0.396,0.148
		c-0.119,0.008-0.263-0.032-0.43-0.121c-0.424-0.331-0.658-0.525-0.701-0.583c-0.18-0.268-0.29-0.702-0.331-1.3
		c-0.02-0.279-0.032-0.609-0.038-0.99c0.033-0.083,0.08-0.416,0.141-1.002c0.142-1.413,0.29-2.606,0.443-3.579
		c0.283-1.984,0.66-4.076,1.129-6.274c0.119-0.589,0.314-1.244,0.585-1.965c0.318-0.904,0.486-1.377,0.503-1.418
		c0.063-0.245,0.231-0.577,0.503-0.997c0.164-0.232,0.355-0.355,0.575-0.371c0.199-0.014,0.407,0.092,0.623,0.317
		C323.519,123.991,323.422,124.329,323.147,124.688z"/>
	<path fill="#2B96F1" d="M329.096,133.297c0.3-0.021,0.723,0.01,1.27,0.092c0.547,0.083,0.94,0.115,1.18,0.099
		c0.288,0.101,0.527,0.384,0.721,0.852c-0.125,0.51-0.528,0.769-1.209,0.776c-0.19-0.147-0.418-0.231-0.68-0.254
		c-0.14,0.01-0.389,0.027-0.748,0.052c-0.164-0.049-0.448-0.039-0.854,0.029c-0.406,0.069-0.734,0.041-0.983-0.082
		c-0.238,0.037-0.487,0.064-0.746,0.082c-0.918,0.064-1.713,0.018-2.385-0.136c-0.835-0.183-1.269-0.514-1.302-0.992
		c0.167-0.192,0.559-0.31,1.178-0.353c0.22-0.015,0.87-0.03,1.952-0.045C327.491,133.409,328.36,133.369,329.096,133.297z"/>
	<path fill="#2B96F1" d="M344.412,131.273l-0.389,0.027c-0.059,0.024-0.114,0.098-0.165,0.222c-0.384-0.034-0.687,0.078-0.909,0.334
		c-0.006,0.201-0.002,0.411,0.014,0.63c0.043,0.619,0.2,1.31,0.474,2.072c0.223,0.606,0.46,1.282,0.713,2.026
		c0.178,0.249,0.633,1.039,1.367,2.371c0.084,0.075,0.131,0.162,0.139,0.261c0.014,0.2-0.19,0.443-0.611,0.733
		c-0.451-0.148-0.932-0.717-1.441-1.704c-0.188-0.388-0.547-1.084-1.077-2.09c-0.186-0.649-0.368-1.118-0.549-1.405
		c-0.077-0.537-0.241-1.317-0.493-2.342c-0.847,0.221-2.079,0.667-3.696,1.339c-0.298,0.041-0.771,0.165-1.417,0.369
		c-0.256,0.078-0.413,0.27-0.472,0.574c-0.739,0.914-1.321,2.208-1.746,3.88c0.203-0.255,0.566-0.641,1.093-1.159l-0.56,1.903
		c-0.139,0.03-0.229,0.156-0.274,0.38c-0.102,0.568-0.531,0.878-1.289,0.931c-0.159,0.011-0.301,0.001-0.423-0.031
		c0.016-0.061,0.022-0.112,0.02-0.151c-0.007-0.1-0.042-0.167-0.104-0.203c-0.054-1.059,0.275-2.245,0.986-3.557
		c0.461-0.875,0.862-1.724,1.206-2.55l-0.704-0.192c-0.249-0.123-0.373-0.314-0.371-0.576c-0.034-0.198,0.177-0.483,0.633-0.856
		c0.116-0.048,0.235-0.076,0.354-0.084c0.1-0.007,0.268,0.031,0.505,0.115c0.235,0.083,0.412,0.102,0.529,0.053
		c0.249-0.457,0.643-1.137,1.182-2.036c0.334-0.404,0.688-0.93,1.063-1.577l0.94-1.629c0.082-0.247,0.259-0.594,0.528-1.044
		c0.27-0.45,0.445-0.797,0.529-1.044c0.095-0.067,0.176-0.212,0.24-0.438s0.114-0.369,0.15-0.432
		c-0.044-0.057-0.027-0.249,0.05-0.575c0.018-0.041,0.03-0.142,0.04-0.303c0.177-0.053,0.288-0.18,0.334-0.384
		c0.076-0.346,0.243-0.538,0.501-0.576c0.396-0.067,0.75-0.022,1.062,0.137c0.062,0.316,0.109,0.714,0.143,1.193
		c0.032,0.458,0.05,1.009,0.055,1.65c0.058,0.257,0.096,0.515,0.113,0.774c0.046,0.659-0.031,1.276-0.232,1.851
		c0.02,0.279,0.018,0.69-0.005,1.233c0.057,0.237,0.151,0.591,0.284,1.062c0.16-0.011,0.396-0.058,0.713-0.139
		c0.314-0.082,0.552-0.129,0.711-0.14c0.399-0.028,0.729,0.081,0.985,0.323C344.907,130.878,344.663,131.135,344.412,131.273z
		 M341.059,128.438c-0.028-0.98-0.067-1.68-0.116-2.097c-0.833,1.281-1.999,3.256-3.498,5.926c0.663-0.266,1.663-0.586,3.001-0.959
		c0.258-0.038,0.539-0.177,0.843-0.419C341.168,130.315,341.091,129.499,341.059,128.438z"/>
	<path fill="#2B96F1" d="M350.421,129.894c0.771-0.154,1.292-0.009,1.563,0.433c0.16,0.29,0.27,0.854,0.327,1.691l0.1,1.437
		c-0.131,0.129-0.21,0.285-0.238,0.467c-0.084,0.227-0.183,0.544-0.294,0.953l-0.073,0.245c0.003,0.04-0.012,0.121-0.043,0.244
		c-0.357,0.927-0.604,1.866-0.737,2.818c-0.175,0.373-0.273,0.821-0.298,1.344c-0.115,0.068-0.172,0.202-0.168,0.402
		c0.004,0.2-0.012,0.332-0.047,0.395c-0.523,2.582-0.874,4.169-1.054,4.765c-0.925,3.131-2.137,4.749-3.633,4.853
		c-0.159,0.011-0.32-0.008-0.485-0.057l-0.736-0.641c1.064,0.006,1.741-0.352,2.031-1.073c0.393-0.409,0.7-0.89,0.922-1.447
		c0.957-2.392,1.572-4.8,1.845-7.225c-0.422,0.27-0.99,0.319-1.704,0.148c-0.936-0.496-1.508-1.087-1.717-1.775
		c-0.181-0.589-0.286-1.103-0.317-1.542c-0.031-0.459,0.011-0.873,0.125-1.242c0.626-1.948,1.353-3.321,2.18-4.121
		c0.44-0.311,0.942-0.566,1.511-0.767C349.793,130.098,350.107,129.996,350.421,129.894z M351.116,131.229l-0.064-0.056
		c-0.009-0.12-0.053-0.177-0.133-0.171c-0.058,0.024-0.524,0.237-1.398,0.638c-0.642,0.286-0.978,0.519-1.004,0.701
		c-0.42,0.31-0.857,1.082-1.313,2.316c-0.238,0.618-0.339,1.177-0.305,1.675c0.022,0.32,0.108,0.694,0.259,1.125
		c0.125,0.352,0.493,0.758,1.106,1.216c0.428,0.091,0.849-0.199,1.264-0.87c0.36-0.586,0.594-1.253,0.702-2.003
		c0.01-0.442,0.162-0.994,0.457-1.656c0.104-0.228,0.227-0.487,0.367-0.777c-0.007-0.1-0.145-0.201-0.412-0.302
		c0.387-0.208,0.568-0.48,0.545-0.819L351.116,131.229z"/>
	<path fill="#2B96F1" d="M359.435,132.817c-0.094,0.668-0.179,1.327-0.254,1.973c-0.104,0.829-0.138,1.483-0.104,1.962
		c0.061,0.878,0.343,1.63,0.848,2.256c-0.195,0.073-0.372,0.116-0.532,0.127c-0.279,0.02-0.535-0.053-0.768-0.217
		c-0.424-0.633-0.668-1.407-0.731-2.326c-0.04-0.578-0.001-1.312,0.117-2.203l0.274-2.124l-0.034-0.058
		c-0.718,0.631-1.506,1.698-2.364,3.201c-0.912,1.587-1.648,2.681-2.209,3.28c-0.271,0.139-0.517,0.217-0.735,0.232
		c-0.12,0.008-0.241-0.003-0.363-0.035c-0.357-0.236-0.478-0.668-0.36-1.298c0.159-0.873,0.39-2.031,0.691-3.476
		c0.268-1.342,0.427-2.516,0.477-3.521c0.127-0.189,0.291-0.29,0.491-0.304c0.199-0.014,0.391,0.083,0.576,0.291
		c0.185,0.208,0.264,0.413,0.238,0.615l-0.92,5.387c0.064-0.226,0.244-0.519,0.54-0.88c0.919-1.487,1.517-2.421,1.791-2.801
		c0.732-0.993,1.51-1.789,2.33-2.387c0.658-0.045,1.013,0.281,1.061,0.979c0.01,0.14,0,0.361-0.029,0.664
		S359.425,132.678,359.435,132.817z"/>
	<path fill="#2B96F1" d="M367.018,135.058c-0.153,0.091-0.272,0.26-0.355,0.506c-0.116,0.35-0.193,0.545-0.23,0.587
		c-0.217,0.336-0.624,0.815-1.223,1.438c-0.539,0.899-1.384,1.449-2.532,1.649c-0.318,0.042-0.639,0.044-0.962,0.006
		c-0.805-0.326-1.354-1.029-1.65-2.111c0.016-0.643,0.139-1.343,0.366-2.101c0.148-0.451,0.363-1.118,0.643-1.999
		c0.147-0.19,0.335-0.524,0.562-1.001c0.231-0.417,0.481-0.714,0.75-0.894c0.229-0.457,0.618-0.765,1.169-0.923
		c0.202,0.026,0.518-0.196,0.946-0.667c-0.025-0.078,0.016-0.201,0.125-0.37c0.218-0.035,0.416-0.059,0.596-0.071
		c0.299-0.021,0.541-0.008,0.725,0.04c0.858,0.522,1.335,1.461,1.429,2.818c0.023,0.339,0.022,0.695-0.001,1.067
		C367.35,133.407,367.231,134.081,367.018,135.058z M366.212,130.814c-0.09-0.435-0.311-0.72-0.66-0.856l-1.283,0.57l0.323,0.338
		c0.035,0.219,0.077,0.536,0.127,0.954c0.024,0.359-0.065,0.656-0.27,0.891c-0.096,0.067-0.192,0.114-0.291,0.14
		c-0.278,0.04-0.48-0.277-0.606-0.951c-0.175,0.093-0.39,0.318-0.646,0.676c-0.312,0.423-0.534,0.689-0.666,0.798
		c-0.476,1.236-0.727,1.955-0.753,2.157c-0.144,0.532-0.198,1.036-0.165,1.515c0.017,0.24,0.052,0.478,0.109,0.714
		c0.153,0.19,0.461,0.289,0.923,0.297c2.229-0.816,3.608-2.736,4.142-5.761C366.398,131.744,366.303,131.249,366.212,130.814z"/>
	<path fill="#2B96F1" d="M369.562,132.716c0.101,0.013,0.142,0.021,0.122,0.022c-0.02,0.021-0.038,0.033-0.058,0.034l0.335,0.067
		c-0.013,0.102,0.042,0.168,0.164,0.199c0.02-0.001,0.062,0.016,0.124,0.051c0.038-0.022,0.088-0.036,0.147-0.04l0.21-0.015
		c0.111,0.173,0.388,0.315,0.826,0.424c0.438,0.11,0.723,0.231,0.853,0.362c0.907,0.378,1.453,0.872,1.636,1.48
		c0.029,0.419-0.14,0.882-0.506,1.389c-0.079,0.005-0.146,0.06-0.198,0.164s-0.098,0.177-0.136,0.22
		c-1.121,0.879-2.163,1.323-3.125,1.329c-0.602,0.001-1.144-0.152-1.625-0.459c-0.205-0.627-0.303-0.881-0.294-0.761
		c-0.014-0.199,0.103-0.398,0.35-0.595c0.068,0.115,0.267,0.382,0.597,0.801c0.154,0.21,0.359,0.275,0.615,0.197
		c0.961-0.307,1.566-0.529,1.818-0.667c0.697-0.349,1.147-0.791,1.352-1.327c-0.094-0.476-0.786-0.928-2.079-1.36
		c-0.41-0.132-0.925-0.327-1.544-0.584c-0.522-0.304-0.794-0.746-0.814-1.327c0.18-0.293,0.487-0.635,0.922-1.026
		c0.568-0.479,0.917-0.795,1.047-0.944c0.266-0.219,0.688-0.479,1.269-0.78c0.269-0.178,0.937-0.516,2.006-1.011
		c0.364,0.056,0.557,0.082,0.576,0.081c0.225,0.064,0.354,0.196,0.388,0.394c0.012,0.16-0.107,0.319-0.357,0.476
		c-0.137,0.05-0.335,0.148-0.596,0.297c-0.261,0.149-0.459,0.248-0.596,0.297c-0.061,0.004-0.495,0.235-1.306,0.692
		c-0.944,0.547-1.619,1.085-2.022,1.614c0.002,0.04-0.041,0.143-0.13,0.309L369.562,132.716z"/>
	<path fill="#2B96F1" d="M378.835,128.104c0.423,0.031,0.846,0.052,1.267,0.062c0.485,0.067,0.888,0.229,1.207,0.488l0.069,0.566
		c-0.318,0.042-0.888,0.062-1.71,0.059c-0.502-0.005-0.928,0.064-1.279,0.209c-1.123,2.584-1.598,4.712-1.421,6.383
		c0.017,0.239,0.066,0.461,0.15,0.666c0.085,0.205,0.297,0.295,0.636,0.271c0.199-0.014,0.436-0.069,0.71-0.169
		c0.218-0.035,0.561-0.219,1.029-0.553c0.468-0.333,0.921-0.524,1.358-0.575c-0.284,1.102-1.151,1.894-2.602,2.375
		c-0.177,0.052-0.335,0.083-0.475,0.093c-0.539,0.037-0.97-0.104-1.292-0.422c-0.4-0.553-0.637-1.229-0.713-2.025
		c-0.116-1.094,0.073-2.421,0.566-3.979c0.174-0.373,0.365-0.958,0.57-1.754c-0.697,0.068-1.272,0.439-1.728,1.112
		c-0.357,0.045-0.659-0.255-0.904-0.9c0.025-0.222,0.247-0.478,0.668-0.768c0.282-0.279,0.669-0.487,1.16-0.622
		c0.435-0.09,0.869-0.19,1.303-0.301c0.81-1.9,1.339-3.681,1.584-5.342c0.126-0.209,0.269-0.319,0.429-0.331
		c0.257-0.038,0.521,0.134,0.787,0.517c0.036,1.381-0.393,3.005-1.286,4.871C378.882,128.061,378.853,128.083,378.835,128.104z"/>
	<path fill="#2B96F1" d="M385.093,135.519c-0.159,0.312-0.429,0.762-0.809,1.35c-0.745,0.533-1.298,0.801-1.659,0.807
		c-0.36,0.005-0.78-0.267-1.259-0.815c-0.064-0.356-0.109-0.714-0.135-1.073c-0.145-2.095,0.021-4.181,0.499-6.259
		c0.077-0.326,0.301-1.003,0.67-2.032c0.11-0.147,0.266-0.229,0.465-0.242s0.394,0.043,0.583,0.169
		c0.189,0.128,0.291,0.281,0.303,0.46c0.007,0.1-0.017,0.192-0.071,0.276c-0.319,0.604-0.606,1.385-0.859,2.345l-0.443,3.158
		c-0.094,0.668-0.066,1.499,0.083,2.491c0.048,0.117,0.159,0.27,0.332,0.458c0.081,0.015,0.196-0.059,0.346-0.22
		c0.149-0.161,0.253-0.253,0.312-0.277c0.229-0.176,0.536-0.508,0.924-0.996c0.388-0.487,0.735-0.813,1.045-0.975l0.632-0.856
		C385.775,134.509,385.454,135.252,385.093,135.519z M384.837,124.891l-0.086,0.066c-0.037,0.043-0.07,0.145-0.099,0.308
		c-0.952,0.146-1.478-0.048-1.574-0.583c-0.022-0.318,0.073-0.526,0.287-0.621c0.078-0.025,0.318-0.042,0.719-0.05
		c0.1-0.007,0.228-0.046,0.383-0.117c0.164,0.049,0.346,0.217,0.546,0.504C385.043,124.556,384.986,124.721,384.837,124.891z"/>
	<path fill="#2B96F1" d="M392.575,135c-0.111,0.128-0.326,0.344-0.646,0.646c-0.714,0.691-1.569,1.072-2.567,1.141
		c-0.52,0.036-1.025-0.04-1.519-0.226c-0.813-0.444-1.27-1.386-1.369-2.822c0.436-3.258,1.478-5.425,3.128-6.502
		c0.686,0.073,1.14,0.393,1.359,0.958c0.048,0.118,0.036,0.238-0.035,0.363s-0.178,0.193-0.317,0.203
		c-0.059,0.004-0.137-0.025-0.231-0.089c-0.094-0.063-0.182-0.092-0.261-0.086c-0.04,0.002-0.09,0.016-0.148,0.04
		c-0.074,0.085-0.308,0.333-0.7,0.74c-0.279,0.3-0.451,0.583-0.513,0.848c-0.2,0.295-0.414,0.821-0.642,1.578
		c-0.254,0.399-0.39,0.889-0.41,1.472l0.106,1.526c0.246,0.665,0.688,0.975,1.327,0.931c0.519-0.036,1.596-0.551,3.231-1.547
		l0.027-0.032c0.111-0.128,0.3-0.161,0.564-0.1C392.986,134.42,392.857,134.739,392.575,135z"/>
	<path fill="#2B96F1" d="M254.6,157.008l-0.166,0.643c-0.239,0.598-0.554,1.542-0.946,2.832c-0.183,0.254-0.349,0.606-0.498,1.057
		c-0.049,0.165-0.183,0.544-0.402,1.141c-0.234,0.658-0.872,2.166-1.911,4.523l-0.108,0.609c-0.178,0.032-0.288,0.17-0.332,0.414
		l-0.104,0.248c-0.352,0.426-0.855,1.242-1.514,2.45c-0.586,1.083-1.164,1.865-1.731,2.346c-0.659,0.045-1.142-0.131-1.45-0.53
		c-0.199-0.268-0.393-0.74-0.58-1.418c-0.188-0.679-0.38-1.152-0.579-1.418c-0.333-1.34-0.666-3.377-0.995-6.111
		c-0.33-2.733-0.662-4.77-0.995-6.111c0.012-0.401,0.188-0.614,0.526-0.638c0.343,0.017,0.555,0.042,0.637,0.077
		c0.225,0.064,0.376,0.205,0.45,0.42c0.298,0.821,0.381,1.587,0.25,2.298c0.113,0.193,0.193,0.479,0.239,0.855
		c0.058,0.537,0.099,0.836,0.123,0.894c-0.122,0.27-0.174,0.534-0.156,0.793c0.013,0.179,0.081,0.44,0.205,0.782
		s0.192,0.604,0.205,0.783c0.01,0.14-0.002,0.281-0.031,0.423c0.069,0.136,0.111,0.379,0.125,0.729
		c0.015,0.35,0.065,0.582,0.154,0.696c0.099,2.299,0.613,4.218,1.542,5.757c1.333-1.597,2.562-3.816,3.688-6.661
		c0.237-0.618,0.688-1.792,1.349-3.522c0.354-0.686,0.715-1.684,1.086-2.992c0.381-1.45,0.701-2.464,0.962-3.044
		c0.109-0.147,0.264-0.229,0.464-0.243c0.14-0.01,0.302,0.009,0.485,0.057c0.193,0.188,0.299,0.4,0.315,0.64
		C254.924,156.043,254.822,156.451,254.6,157.008z"/>
	<path fill="#2B96F1" d="M257.097,170.458c-0.159,0.312-0.429,0.762-0.809,1.349c-0.745,0.533-1.298,0.801-1.658,0.807
		c-0.36,0.005-0.781-0.267-1.26-0.815c-0.064-0.356-0.109-0.714-0.135-1.073c-0.145-2.095,0.021-4.182,0.498-6.259
		c0.078-0.326,0.302-1.003,0.671-2.031c0.11-0.147,0.266-0.229,0.465-0.243s0.394,0.043,0.583,0.17
		c0.189,0.127,0.29,0.28,0.303,0.46c0.007,0.1-0.017,0.192-0.071,0.275c-0.319,0.604-0.605,1.385-0.859,2.345l-0.442,3.159
		c-0.095,0.668-0.067,1.498,0.082,2.49c0.048,0.117,0.159,0.27,0.333,0.458c0.08,0.015,0.196-0.059,0.345-0.22
		c0.149-0.161,0.254-0.253,0.312-0.277c0.229-0.176,0.536-0.508,0.924-0.996c0.387-0.488,0.735-0.812,1.045-0.975l0.633-0.856
		C257.779,169.448,257.458,170.191,257.097,170.458z M256.841,159.83l-0.086,0.066c-0.037,0.043-0.07,0.145-0.099,0.307
		c-0.952,0.147-1.478-0.048-1.574-0.583c-0.022-0.318,0.073-0.526,0.288-0.621c0.077-0.025,0.317-0.042,0.718-0.05
		c0.1-0.007,0.228-0.046,0.383-0.117c0.163,0.049,0.346,0.217,0.546,0.503C257.048,159.495,256.99,159.66,256.841,159.83z"/>
	<path fill="#2B96F1" d="M264.95,169.642l-0.084,0.096c-0.096,0.066-0.129,0.17-0.1,0.308c-1.513,1.308-2.745,2.035-3.697,2.181
		c-0.537,0.057-1.073-0.006-1.606-0.19c-0.456-0.208-0.777-0.507-0.965-0.895c-0.162-0.309-0.298-0.831-0.409-1.565
		c0.399-3.195,1.725-5.763,3.977-7.704c0.078-0.025,0.305-0.081,0.68-0.167c0.315-0.082,0.584-0.041,0.807,0.124
		c0.222,0.166,0.344,0.408,0.365,0.727c-0.022,0.262-0.034,0.514-0.038,0.754c-0.259,1.181-1.323,2.598-3.193,4.251
		c-0.112,0.108-0.435,0.231-0.967,0.368c-0.315,0.082-0.452,0.271-0.411,0.57c-0.229,0.456-0.311,0.873-0.245,1.25
		c0.012,0.16,0.112,0.453,0.303,0.881c0.372,0.456,0.938,0.657,1.695,0.604l0.113-0.098c0.319-0.022,0.751-0.162,1.294-0.421
		c0.535-0.378,1.39-0.918,2.564-1.621c0.025,0.078,0.041,0.147,0.045,0.208C265.084,169.422,265.042,169.536,264.95,169.642z
		 M262.761,163.238c-0.064-0.056-0.139-0.111-0.222-0.166c-1.013,0.732-1.854,1.893-2.526,3.484
		c0.101-0.007,0.208-0.055,0.321-0.143c0.467-0.493,0.935-0.986,1.401-1.48C262.272,164.275,262.613,163.71,262.761,163.238z"/>
	<path fill="#2B96F1" d="M280.655,160.223c-0.123,0.25-0.262,0.55-0.418,0.901c-0.423,0.57-1.188,1.957-2.299,4.159
		c-0.882,1.745-1.807,2.992-2.777,3.741c-0.234,0.096-0.461,0.152-0.68,0.167c-0.359,0.025-0.725-0.04-1.097-0.195
		c-0.242-0.304-0.581-0.721-1.02-1.252c-0.036-0.238-0.182-0.749-0.437-1.534c-0.204-0.627-0.311-1.151-0.319-1.571
		c-0.229,0.477-0.621,1.176-1.178,2.096c-0.078,0.327-0.269,0.761-0.571,1.303c-0.304,0.543-0.497,0.937-0.58,1.183
		c-0.288,0.461-0.794,1.118-1.517,1.97l-0.869,0.06c-0.458,0.032-0.703-0.182-0.735-0.641c-0.105-1.235-0.102-2.77,0.012-4.602
		c0.068-1.328,0.146-2.796,0.235-4.407c0.005-0.22,0.147-0.341,0.427-0.36c0.318-0.022,0.544,0.042,0.675,0.193
		c0.24,0.284,0.372,0.606,0.397,0.965c0.015,0.219-0.016,0.562-0.094,1.029c-0.078,0.466-0.104,0.809-0.079,1.027
		c0.025,0.219-0.036,0.564-0.184,1.035c-0.1,0.308-0.009,0.603,0.271,0.883c-0.237,0.058-0.354,0.105-0.351,0.145l0.006,0.09
		c0.015,0.2,0.002,0.462-0.036,0.785c-0.049,0.445-0.081,0.718-0.094,0.819c-0.022,0.542,0.008,0.972,0.09,1.286
		c0.306-0.221,0.608-0.623,0.909-1.205c0.334-0.665,0.595-1.094,0.782-1.287c0.41-1.031,1.309-2.817,2.695-5.36
		c0.209-0.174,0.452-0.272,0.731-0.292c0.101-0.007,0.211-0.004,0.332,0.007c0.309,0.119,0.473,0.309,0.49,0.568
		c0.006,0.08-0.009,0.236-0.043,0.469c-0.034,0.233-0.036,0.408-0.008,0.527c-0.089,0.167-0.135,0.441-0.139,0.821
		c-0.004,0.381-0.041,0.645-0.11,0.79c0.146,1.233,0.231,1.899,0.258,1.997c0.194,0.769,0.561,1.295,1.103,1.577
		c0.181,0.008,0.366-0.205,0.557-0.64c0.385-0.527,1.258-1.952,2.621-4.271c1.022-1.735,1.969-3.104,2.843-4.107l0.568-0.04
		C280.972,159.459,280.849,159.849,280.655,160.223z"/>
	<path fill="#2B96F1" d="M297.821,164.927c-0.155,0.071-0.357,0.271-0.605,0.598c-0.247,0.329-0.49,0.511-0.729,0.547
		c-0.674,0.688-1.837,1.42-3.485,2.196c-0.103,0.268-0.312,0.428-0.629,0.479c-0.317,0.053-0.522,0.132-0.615,0.239l-2.178,0.692
		c-0.923,0.284-1.713,0.449-2.371,0.495c-0.499,0.035-0.941,0.005-1.329-0.088c-0.125-0.072-0.167-0.239-0.126-0.503
		c0.525,0.044,1.236-0.105,2.135-0.448c0.03-0.143-0.003-0.331-0.1-0.564c-0.121-0.312-0.185-0.499-0.188-0.559
		c0.116-2.374,0.392-4.899,0.828-7.576c0.155-0.351,0.282-0.841,0.379-1.47c0.108-0.749,0.204-1.247,0.287-1.494
		c-0.027-0.098,0.062-0.565,0.264-1.401c0.108-0.469-0.059-0.697-0.499-0.687c-0.645-0.617-0.973-1.025-0.986-1.225
		c-0.006-0.08-0.002-0.161,0.013-0.242c0.128-0.169,0.332-0.263,0.612-0.283c0.18-0.012,0.391,0.003,0.635,0.046
		c0.041,0.017,0.092,0.023,0.151,0.019l0.03-0.002l0.167-0.191c0.167-0.192,0.27-0.299,0.309-0.323
		c0.132-0.109,0.288-0.18,0.467-0.212c0.402,0.032,0.757,0.369,1.062,1.009c-0.016,0.061-0.021,0.121-0.018,0.181
		c0.006,0.08,0.05,0.127,0.13,0.141l0.27-0.019c0.04-0.003,0.129-0.029,0.266-0.079c0.252,0.163,0.719,0.251,1.401,0.264
		c2.549,0.324,4.533,1.189,5.954,2.594c0.73,0.711,1.131,1.565,1.2,2.563c0.053,0.758-0.117,1.492-0.509,2.2
		C299.788,162.365,299.058,163.397,297.821,164.927z M299.06,158.947c-0.029-0.138-0.104-0.343-0.223-0.616
		c-0.552-0.723-1.803-1.419-3.754-2.085l-2.064-0.278c-0.809-0.104-1.511-0.115-2.106-0.034c-0.088,0.769-0.283,1.844-0.588,3.229
		c-0.339,1.487-0.555,2.564-0.648,3.232c-0.138,0.331-0.199,0.596-0.186,0.794c0.006,0.081,0.021,0.15,0.045,0.208
		c-0.089,0.467-0.164,1.264-0.226,2.391c-0.07,1.008-0.197,1.788-0.379,2.342c0.14,0.271,0.204,0.478,0.193,0.618l0.06-0.004
		c0.719-0.05,1.628-0.373,2.729-0.971l2.606-1.444c0.204-0.235,0.517-0.506,0.936-0.816c0.497-0.355,0.819-0.608,0.97-0.76
		c1.826-1.71,2.79-3.431,2.891-5.162C299.205,159.458,299.12,159.243,299.06,158.947z"/>
	<path fill="#2B96F1" d="M308.129,167.881c-0.213,0.115-0.559,0.329-1.037,0.643c-0.259,0.038-0.688-0.093-1.29-0.392
		c-0.032-0.158-0.131-0.422-0.296-0.792c-0.166-0.369-0.257-0.664-0.271-0.883c-0.147,0.191-0.246,0.358-0.296,0.502
		c-0.676,0.969-1.068,1.518-1.18,1.646c-0.544,0.539-1.148,0.781-1.813,0.727c-0.568-0.381-0.881-0.981-0.938-1.799
		c-0.098-1.417-0.033-2.504,0.195-3.262c0.565-1.964,1.835-3.746,3.81-5.346l0.479-0.033c0.459-0.032,0.707,0.222,0.744,0.76
		c0.013,0.179-0.022,0.542-0.104,1.09c-0.083,0.266-0.278,0.621-0.588,1.063c-0.051,0.144-0.28,0.3-0.689,0.469
		c0.063-0.526,0.195-0.936,0.396-1.231c0.015-0.061,0.054-0.224,0.116-0.489c0.017-0.041,0.022-0.102,0.017-0.182
		c-0.004-0.06-0.019-0.129-0.044-0.207c0.094-0.087,0.14-0.161,0.135-0.22c-0.121-0.011-0.318,0.172-0.593,0.552
		c-0.058,0.044-0.151,0.142-0.281,0.291c-1.892,2.497-2.791,4.705-2.697,6.622c0.119,0.574,0.32,0.88,0.604,0.921
		c0.666-0.227,1.219-0.786,1.658-1.679c0.523-0.537,0.96-1.47,1.31-2.797c0.185-0.514,0.506-1.81,0.963-3.886
		c0.067-0.185,0.277-0.35,0.628-0.494c0.193,0.187,0.298,0.399,0.314,0.639c0.01,0.14-0.017,0.332-0.08,0.577
		c-0.06,0.305-0.095,0.508-0.107,0.609c-0.646,2.25-0.944,3.734-0.895,4.452c0.065,0.938,0.299,1.563,0.701,1.876
		c0.078-0.025,0.318-0.173,0.722-0.441c0.345-0.224,0.558-0.339,0.638-0.345c0.026,0.099,0.044,0.198,0.051,0.297
		C308.436,167.519,308.342,167.766,308.129,167.881z"/>
	<path fill="#2B96F1" d="M312.52,158.765c0.423,0.031,0.845,0.052,1.267,0.062c0.485,0.067,0.888,0.23,1.207,0.489l0.069,0.566
		c-0.318,0.042-0.888,0.062-1.71,0.059c-0.502-0.005-0.928,0.064-1.279,0.209c-1.124,2.584-1.598,4.711-1.422,6.384
		c0.017,0.239,0.066,0.461,0.151,0.666s0.297,0.295,0.636,0.272c0.199-0.014,0.436-0.07,0.71-0.169
		c0.218-0.035,0.561-0.22,1.029-0.552c0.468-0.333,0.921-0.525,1.358-0.576c-0.284,1.102-1.151,1.894-2.602,2.375
		c-0.177,0.052-0.336,0.084-0.475,0.093c-0.539,0.038-0.97-0.104-1.292-0.421c-0.4-0.553-0.638-1.229-0.713-2.025
		c-0.116-1.095,0.073-2.421,0.566-3.979c0.174-0.373,0.364-0.958,0.57-1.753c-0.697,0.068-1.273,0.439-1.728,1.112
		c-0.357,0.045-0.659-0.255-0.904-0.9c0.025-0.222,0.247-0.478,0.668-0.768c0.282-0.28,0.669-0.487,1.16-0.622
		c0.435-0.09,0.869-0.191,1.303-0.301c0.81-1.9,1.339-3.682,1.584-5.343c0.126-0.209,0.269-0.319,0.429-0.33
		c0.257-0.038,0.521,0.134,0.787,0.517c0.036,1.381-0.394,3.004-1.286,4.87C312.566,158.722,312.537,158.744,312.52,158.765z"/>
	<path fill="#2B96F1" d="M320.639,167.013c-0.213,0.115-0.559,0.329-1.038,0.643c-0.258,0.038-0.688-0.093-1.29-0.391
		c-0.031-0.158-0.13-0.422-0.296-0.792s-0.256-0.664-0.271-0.884c-0.148,0.191-0.246,0.358-0.297,0.502
		c-0.675,0.969-1.067,1.518-1.179,1.646c-0.545,0.539-1.148,0.781-1.813,0.727c-0.568-0.381-0.881-0.981-0.938-1.799
		c-0.098-1.417-0.033-2.504,0.195-3.261c0.564-1.964,1.835-3.746,3.809-5.346l0.479-0.033c0.458-0.032,0.706,0.222,0.744,0.76
		c0.012,0.179-0.022,0.543-0.104,1.09c-0.083,0.266-0.278,0.621-0.589,1.063c-0.05,0.144-0.279,0.3-0.688,0.469
		c0.063-0.526,0.195-0.936,0.396-1.231c0.015-0.061,0.054-0.224,0.116-0.489c0.017-0.042,0.022-0.102,0.017-0.182
		c-0.004-0.06-0.019-0.129-0.044-0.208c0.094-0.086,0.139-0.16,0.135-0.22c-0.121-0.011-0.318,0.172-0.593,0.552
		c-0.058,0.044-0.151,0.142-0.281,0.29c-1.892,2.497-2.791,4.705-2.698,6.623c0.12,0.573,0.321,0.88,0.605,0.92
		c0.665-0.227,1.219-0.786,1.658-1.679c0.523-0.537,0.96-1.47,1.309-2.797c0.185-0.514,0.506-1.81,0.964-3.886
		c0.067-0.186,0.277-0.35,0.628-0.495c0.192,0.188,0.298,0.4,0.314,0.64c0.01,0.14-0.018,0.332-0.08,0.577
		c-0.06,0.304-0.096,0.507-0.108,0.609c-0.646,2.25-0.944,3.734-0.895,4.452c0.065,0.938,0.299,1.563,0.702,1.876
		c0.078-0.025,0.318-0.172,0.722-0.441c0.345-0.224,0.558-0.339,0.637-0.345c0.027,0.099,0.044,0.197,0.051,0.297
		C320.945,166.651,320.852,166.899,320.639,167.013z"/>
	<path fill="#2B96F1" d="M332.091,157.829c2.271-0.197,4.02,0.293,5.244,1.471c0.353,0.457,0.547,0.955,0.584,1.494
		c0.022,0.319-0.025,0.652-0.141,1.001c-0.115,0.068-0.216,0.21-0.301,0.427c-0.086,0.216-0.186,0.358-0.302,0.427l-0.148,0.461
		c-0.163,0.251-0.446,0.577-0.849,0.976c-0.404,0.399-0.688,0.705-0.854,0.917c-1.651,1.337-3.295,2.062-4.931,2.176
		c-0.659,0.045-1.285-0.021-1.879-0.2c-0.253-0.184-0.513-0.386-0.778-0.608c-0.267-0.223-0.399-0.484-0.4-0.785
		c0.191-0.134,0.379-0.167,0.564-0.099c0.144,0.05,0.234,0.064,0.273,0.042c0.205-1.378,0.563-3.297,1.074-5.758
		c0.031-0.123-0.066-0.296-0.292-0.521s-0.342-0.377-0.348-0.457c-0.01-0.14,0.082-0.266,0.274-0.38
		c0.442-0.271,0.708-0.771,0.799-1.5c0.132-0.971,0.251-1.581,0.354-1.829c-0.003-0.04,0.004-0.08,0.021-0.122l-0.006-0.09
		l0.051-0.124c0.013-0.101-0.024-0.208-0.112-0.323c0.201-0.273,0.34-0.659,0.415-1.156c0.076-0.497,0.144-0.897,0.203-1.202
		c0.219-0.316,0.487-0.484,0.807-0.506c0.08-0.006,0.161,0.009,0.244,0.043c0.251,0.163,0.386,0.364,0.402,0.604
		c0.013,0.18-0.059,0.455-0.214,0.827c-0.154,0.371-0.226,0.647-0.213,0.827c-0.103,0.548-0.267,1.361-0.492,2.439
		c0.026,0.099,0.005,0.226-0.064,0.38c-0.069,0.155-0.103,0.253-0.1,0.293c2.312-1.363,4.038-2.766,5.182-4.209
		c0.227-0.196,0.356-0.485,0.391-0.869c-0.55-0.403-1.354-0.587-2.415-0.555c-0.559,0.039-1.406,0.087-2.545,0.146
		c-0.182-0.007-0.47,0.033-0.864,0.12c-0.454,0.112-0.76,0.173-0.919,0.184c-0.52,0.036-0.911-0.127-1.177-0.49
		c-0.043-0.037-0.109-0.122-0.198-0.256c-0.024-0.059-0.038-0.107-0.041-0.148c-0.008-0.12,0.039-0.232,0.143-0.34
		c0.102-0.107,0.322-0.192,0.658-0.256l0.323-0.112c0.051,0.157,0.156,0.229,0.315,0.218c0.061-0.004,0.168-0.042,0.323-0.112
		c0.156-0.071,0.283-0.11,0.384-0.117c0.199-0.014,0.402,0.032,0.61,0.138l3.083-0.214c1.242-0.005,2.228,0.187,2.957,0.577
		c0.495,0.507,0.77,0.979,0.819,1.417c-0.179,0.313-0.487,0.785-0.924,1.417c-0.011,0.141-0.148,0.311-0.416,0.51
		c-0.22,0.296-1.171,1.184-2.853,2.664c-0.235,0.077-0.516,0.237-0.839,0.479c-0.42,0.311-0.677,0.498-0.772,0.565
		c-0.021,0.001-0.049,0.023-0.086,0.066L332.091,157.829z M330.825,159.511l0.13,0.142c-0.113,0.108-0.199,0.174-0.258,0.198
		c-0.058,0.025-0.097,0.037-0.116,0.039c-0.047,0.504-0.195,1.246-0.447,2.226c-0.018,0.342-0.112,0.92-0.286,1.734
		s-0.249,1.401-0.224,1.76c0.012,0.179,0.043,0.338,0.093,0.474c0.264,0.042,0.603,0.008,1.016-0.101
		c0.63-0.164,0.965-0.247,1.005-0.25c1.445-0.842,2.442-1.503,2.99-1.982c1.079-0.917,1.702-1.902,1.87-2.957
		c-0.622-1.16-1.537-1.637-2.746-1.434c-0.23-0.144-0.546-0.203-0.944-0.175l-1.107,0.077
		C331.581,159.298,331.255,159.381,330.825,159.511z"/>
	<path fill="#2B96F1" d="M343.437,164.47c-0.158,0.311-0.428,0.762-0.808,1.349c-0.745,0.533-1.298,0.802-1.659,0.807
		c-0.36,0.005-0.78-0.267-1.259-0.815c-0.065-0.356-0.11-0.714-0.135-1.073c-0.146-2.095,0.021-4.182,0.498-6.26
		c0.077-0.326,0.302-1.003,0.671-2.031c0.11-0.147,0.265-0.229,0.465-0.243c0.198-0.014,0.394,0.043,0.583,0.17
		s0.29,0.28,0.303,0.46c0.007,0.1-0.018,0.192-0.071,0.275c-0.319,0.604-0.606,1.386-0.859,2.345l-0.443,3.158
		c-0.094,0.668-0.066,1.499,0.083,2.491c0.048,0.116,0.159,0.27,0.332,0.458c0.081,0.014,0.196-0.06,0.346-0.22
		c0.149-0.161,0.253-0.253,0.312-0.277c0.229-0.176,0.536-0.508,0.924-0.996c0.387-0.488,0.735-0.812,1.045-0.975l0.632-0.856
		C344.119,163.46,343.799,164.204,343.437,164.47z M343.181,153.842l-0.086,0.066c-0.036,0.042-0.069,0.145-0.098,0.307
		c-0.952,0.147-1.478-0.047-1.574-0.583c-0.022-0.318,0.073-0.525,0.287-0.621c0.078-0.025,0.317-0.042,0.719-0.05
		c0.1-0.007,0.227-0.046,0.382-0.117c0.165,0.049,0.347,0.217,0.547,0.503C343.388,153.507,343.329,153.672,343.181,153.842z"/>
	<path fill="#2B96F1" d="M350.789,159.479c-0.095,0.668-0.179,1.326-0.254,1.972c-0.104,0.83-0.138,1.483-0.104,1.962
		c0.061,0.877,0.343,1.629,0.848,2.256c-0.196,0.074-0.373,0.117-0.533,0.128c-0.279,0.019-0.534-0.054-0.767-0.218
		c-0.424-0.632-0.668-1.407-0.732-2.325c-0.04-0.578-0.001-1.313,0.118-2.204l0.273-2.124l-0.034-0.058
		c-0.718,0.632-1.506,1.699-2.364,3.202c-0.912,1.587-1.648,2.681-2.208,3.28c-0.271,0.139-0.517,0.216-0.735,0.231
		c-0.12,0.008-0.241-0.003-0.364-0.035c-0.356-0.235-0.478-0.668-0.36-1.297c0.16-0.873,0.391-2.031,0.691-3.476
		c0.268-1.342,0.427-2.516,0.478-3.521c0.127-0.189,0.291-0.291,0.49-0.305c0.199-0.014,0.392,0.083,0.576,0.291
		s0.264,0.413,0.238,0.615l-0.919,5.387c0.063-0.225,0.244-0.518,0.54-0.88c0.919-1.486,1.517-2.42,1.791-2.8
		c0.731-0.993,1.509-1.788,2.33-2.387c0.658-0.046,1.012,0.281,1.061,0.979c0.01,0.14-0.001,0.361-0.03,0.664
		C350.789,159.118,350.78,159.34,350.789,159.479z"/>
	<path fill="#2B96F1" d="M357,162.748c-0.453,0.692-0.896,1.385-1.33,2.077c-0.589,0.762-1.232,1.168-1.931,1.216
		c-0.299,0.021-0.612-0.018-0.939-0.115c-0.509-0.386-0.786-0.928-0.834-1.626c-0.032-0.459,0.002-0.973,0.104-1.541
		c0.037-0.604,0.247-1.771,0.629-3.502c0.074-0.366,0.298-0.903,0.67-1.61l0.663-1.279c0.338-0.625,0.775-0.956,1.314-0.994
		c0.318-0.022,0.771,0.288,1.357,0.929c0.03,0.158,0.111,0.313,0.243,0.464c0.093-0.969,0.346-2.39,0.757-4.263
		c-0.01-0.139,0.131-0.71,0.423-1.712c0.104-0.228,0.266-0.35,0.485-0.365c0.359-0.025,0.62,0.138,0.786,0.487
		c0.18,1.731,0.05,3.755-0.392,6.071c-0.12,0.59-0.386,1.371-0.8,2.341c-0.242,0.558-0.339,1.186-0.291,1.884
		c0.05,0.718,0.234,1.357,0.555,1.917c0.216,0.225,0.443,0.33,0.684,0.313c0.119-0.008,0.236-0.056,0.351-0.145
		c0.272-0.118,0.547-0.348,0.824-0.688c0.201-0.274,0.412-0.56,0.633-0.856c0.128-0.168,0.395-0.377,0.798-0.626
		c0.052,0.177,0.083,0.335,0.093,0.475c-0.03,0.142-0.145,0.511-0.344,1.105c-0.556,0.661-0.89,1.044-1.003,1.152
		c-0.433,0.412-0.868,0.632-1.308,0.663c-0.199,0.014-0.412-0.012-0.637-0.076C357.917,164.127,357.398,163.562,357,162.748z
		 M356.719,159.128c-0.051-0.156-0.027-0.539,0.071-1.147c-0.307-0.08-0.582-0.28-0.824-0.605l-0.167-0.229
		c-0.111-0.172-0.241-0.293-0.386-0.364c-0.553,0.7-1.067,1.667-1.543,2.904l-0.009,0.301c-0.22,0.297-0.411,1.011-0.573,2.146
		c-0.062,1.126-0.087,1.78-0.074,1.959c0.018,0.26,0.065,0.507,0.142,0.742c0.026,0.099,0.16,0.14,0.399,0.123
		c1.061-0.595,2.023-1.895,2.887-3.899c-0.032-0.178-0.004-0.631,0.087-1.359C356.742,159.598,356.739,159.408,356.719,159.128z"/>
	<path fill="#2B96F1" d="M365.315,162.953c-0.159,0.311-0.429,0.762-0.809,1.349c-0.745,0.533-1.298,0.801-1.658,0.807
		c-0.361,0.005-0.781-0.267-1.26-0.815c-0.064-0.356-0.109-0.714-0.135-1.073c-0.145-2.095,0.021-4.182,0.498-6.26
		c0.078-0.326,0.302-1.003,0.671-2.031c0.11-0.147,0.266-0.229,0.465-0.243c0.199-0.014,0.394,0.043,0.583,0.17
		s0.29,0.28,0.303,0.46c0.007,0.1-0.017,0.192-0.071,0.275c-0.319,0.604-0.605,1.385-0.859,2.345l-0.443,3.158
		c-0.094,0.668-0.066,1.498,0.083,2.491c0.048,0.116,0.159,0.27,0.332,0.458c0.081,0.015,0.196-0.059,0.346-0.22
		c0.149-0.16,0.253-0.253,0.312-0.277c0.229-0.176,0.536-0.508,0.924-0.997c0.387-0.487,0.735-0.812,1.045-0.975l0.632-0.855
		C365.996,161.943,365.676,162.687,365.315,162.953z M365.058,152.325l-0.085,0.066c-0.037,0.043-0.07,0.146-0.099,0.307
		c-0.952,0.147-1.478-0.047-1.574-0.583c-0.022-0.318,0.073-0.525,0.287-0.621c0.078-0.025,0.318-0.042,0.719-0.05
		c0.1-0.007,0.227-0.045,0.383-0.117c0.164,0.049,0.346,0.217,0.546,0.503C365.265,151.99,365.207,152.155,365.058,152.325z"/>
	<path fill="#2B96F1" d="M372.666,157.962c-0.095,0.668-0.179,1.326-0.254,1.972c-0.104,0.83-0.138,1.483-0.104,1.962
		c0.061,0.877,0.343,1.629,0.848,2.256c-0.195,0.074-0.373,0.117-0.533,0.128c-0.279,0.019-0.534-0.054-0.767-0.218
		c-0.424-0.632-0.668-1.407-0.732-2.325c-0.04-0.578-0.001-1.313,0.118-2.204l0.274-2.124l-0.034-0.058
		c-0.719,0.632-1.507,1.699-2.365,3.202c-0.912,1.587-1.648,2.681-2.208,3.28c-0.271,0.139-0.517,0.216-0.735,0.231
		c-0.12,0.008-0.241-0.003-0.363-0.035c-0.357-0.235-0.478-0.668-0.361-1.298c0.16-0.873,0.391-2.031,0.691-3.476
		c0.269-1.342,0.428-2.516,0.478-3.521c0.127-0.189,0.291-0.291,0.49-0.305c0.199-0.014,0.392,0.083,0.576,0.291
		s0.265,0.413,0.239,0.615l-0.92,5.387c0.064-0.225,0.244-0.518,0.54-0.88c0.919-1.486,1.517-2.42,1.791-2.801
		c0.732-0.993,1.509-1.788,2.33-2.386c0.658-0.046,1.012,0.281,1.061,0.979c0.01,0.14-0.001,0.361-0.029,0.664
		C372.666,157.601,372.657,157.823,372.666,157.962z"/>
	<path fill="#2B96F1" d="M377.928,154.049c0.771-0.153,1.293-0.009,1.563,0.433c0.16,0.29,0.27,0.854,0.327,1.691l0.1,1.437
		c-0.131,0.129-0.21,0.286-0.237,0.467c-0.085,0.227-0.184,0.544-0.295,0.953l-0.073,0.246c0.003,0.041-0.012,0.121-0.043,0.244
		c-0.357,0.926-0.603,1.866-0.737,2.817c-0.175,0.374-0.273,0.821-0.297,1.345c-0.116,0.068-0.172,0.202-0.168,0.402
		c0.003,0.2-0.013,0.332-0.048,0.395c-0.523,2.582-0.874,4.17-1.054,4.764c-0.925,3.132-2.136,4.749-3.633,4.853
		c-0.159,0.011-0.32-0.007-0.484-0.056l-0.736-0.641c1.063,0.006,1.74-0.352,2.03-1.073c0.394-0.409,0.7-0.891,0.923-1.447
		c0.956-2.393,1.571-4.8,1.844-7.225c-0.422,0.27-0.99,0.319-1.703,0.148c-0.937-0.496-1.509-1.088-1.718-1.775
		c-0.181-0.589-0.286-1.103-0.317-1.542c-0.031-0.459,0.011-0.873,0.125-1.242c0.627-1.947,1.354-3.321,2.18-4.12
		c0.439-0.312,0.943-0.567,1.511-0.767C377.3,154.253,377.615,154.151,377.928,154.049z M378.622,155.384l-0.064-0.056
		c-0.009-0.12-0.053-0.177-0.132-0.172c-0.059,0.024-0.525,0.237-1.399,0.639c-0.643,0.286-0.977,0.519-1.004,0.701
		c-0.42,0.31-0.857,1.082-1.313,2.316c-0.237,0.618-0.339,1.177-0.305,1.675c0.022,0.319,0.108,0.694,0.259,1.125
		c0.124,0.352,0.493,0.758,1.106,1.217c0.428,0.09,0.848-0.199,1.264-0.87c0.359-0.586,0.594-1.254,0.702-2.003
		c0.01-0.442,0.162-0.994,0.457-1.656c0.104-0.228,0.227-0.487,0.367-0.777c-0.007-0.1-0.145-0.2-0.412-0.302
		c0.387-0.208,0.568-0.479,0.545-0.819L378.622,155.384z"/>
</g>
<g>
</g>
<g>
</g>
<g>
</g>
<g>
</g>
<g>
</g>
<g>
</g>
</svg>
